<?xml version="1.0" encoding="utf-8"?>
<!-- Svg Vector Icons : http://www.onlinewebfonts.com/icon -->
<!DOCTYPE svg PUBLIC "-//W3C//DTD SVG 1.1//EN" "http://www.w3.org/Graphics/SVG/1.1/DTD/svg11.dtd">
<svg version="1.1" xmlns="http://www.w3.org/2000/svg" xmlns:xlink="http://www.w3.org/1999/xlink" x="0px" y="0px" viewBox="0 0 1000 1000" enable-background="new 0 0 1000 1000" xml:space="preserve">
<metadata> Svg Vector Icons : http://www.onlinewebfonts.com/icon </metadata>
<g><path d="M500,10C229.8,10,10,229.8,10,500c0,270.2,219.8,490,490,490c270.2,0,490-219.8,490-490C990,229.8,770.2,10,500,10z M500,949.3C252.3,949.3,50.7,747.7,50.7,500C50.7,252.3,252.3,50.7,500,50.7c247.7,0,449.3,201.6,449.3,449.3C949.3,747.7,747.7,949.3,500,949.3z"/><path d="M757.2,319.6L439.5,637.2L242.8,440.4c-8-8-20.9-8-28.8,0c-8,8-8,20.9,0,28.8l211.1,211.1c4,4,9.2,6,14.4,6c5.2,0,10.4-2,14.4-6L786,348.3c8-8,8-20.9,0-28.8C778,311.6,765.1,311.6,757.2,319.6L757.2,319.6z"/></g>
</svg>