<?xml version="1.0" encoding="UTF-8"?>
<svg width="480px" height="79px" viewBox="0 0 480 79" version="1.1" xmlns="http://www.w3.org/2000/svg" xmlns:xlink="http://www.w3.org/1999/xlink">
    <!-- Generator: Sketch 58 (84663) - https://sketch.com -->
    <title>serverlessdays</title>
    <desc>Created with Sketch.</desc>
    <defs>
        <polygon id="path-1" points="0 0 479.7 0 479.7 81.8 0 81.8"></polygon>
        <polygon id="path-3" points="0 0 479.7 0 479.7 81.8 0 81.8"></polygon>
        <polygon id="path-5" points="0 0 479.7 0 479.7 81.8 0 81.8"></polygon>
        <polygon id="path-7" points="0 0 479.7 0 479.7 81.8 0 81.8"></polygon>
        <polygon id="path-9" points="0 0 479.7 0 479.7 81.8 0 81.8"></polygon>
        <polygon id="path-11" points="0 0 479.7 0 479.7 81.8 0 81.8"></polygon>
        <polygon id="path-13" points="0 0 479.7 0 479.7 81.8 0 81.8"></polygon>
        <polygon id="path-15" points="0 0 479.7 0 479.7 81.8 0 81.8"></polygon>
        <polygon id="path-17" points="0 0 479.7 0 479.7 81.8 0 81.8"></polygon>
        <polygon id="path-19" points="0 0 479.7 0 479.7 81.8 0 81.8"></polygon>
        <polygon id="path-21" points="0 0 479.7 0 479.7 81.8 0 81.8"></polygon>
        <polygon id="path-23" points="0 0 479.7 0 479.7 81.8 0 81.8"></polygon>
        <polygon id="path-25" points="0 0 479.7 0 479.7 81.8 0 81.8"></polygon>
    </defs>
    <g id="Page-1" stroke="none" stroke-width="1" fill="none" fill-rule="evenodd">
        <g id="serverlessdays">
            <g id="Title">
                <polygon id="Path" fill="#12110C" fill-rule="nonzero" points="16.2 0.7 0 50.5 7.4 50.5 23.4 0.7"></polygon>
                <g id="Clipped">
                    <mask id="mask-2" fill="white">
                        <use xlink:href="#path-1"></use>
                    </mask>
                    <g id="Path"></g>
                    <path d="M33.8,38.1 C35.5,38.1 36.9,38 37.8,37.7 C38.7,37.5 39.2,36.9 39.2,36.2 C39.2,35.7 39.1,35.3 38.8,34.9 C38.5,34.6 38.1,34.3 37.6,34 C37.1,33.8 36.5,33.5 35.8,33.3 C35.1,33.1 34.4,32.8 33.7,32.6 C32.7,32.3 31.6,31.9 30.5,31.5 C29.4,31.1 28.4,30.6 27.6,30 C26.7,29.4 26,28.6 25.4,27.7 C24.8,26.8 24.5,25.6 24.5,24.2 C24.5,23 24.7,22 25.2,20.9 C25.6,19.9 26.3,19 27.3,18.2 C28.2,17.4 29.4,16.8 30.9,16.4 C32.4,16 34.1,15.7 36.2,15.7 C38,15.7 39.6,15.8 41.1,16.1 C42.6,16.4 43.9,16.8 45.1,17.3 L44,23.3 C43.3,23.1 42.3,22.8 40.9,22.3 C39.5,21.9 38,21.6 36.2,21.6 C34.4,21.6 33.2,21.8 32.5,22.3 C31.9,22.7 31.5,23.2 31.5,23.7 C31.5,24.1 31.6,24.5 31.9,24.8 C32.2,25.1 32.6,25.4 33.1,25.7 C33.6,26 34.1,26.2 34.8,26.5 C35.4,26.8 36.1,27 36.8,27.2 C37.8,27.5 38.9,27.9 40,28.4 C41.1,28.8 42.1,29.4 43,30 C43.9,30.6 44.6,31.4 45.2,32.4 C45.8,33.4 46.1,34.6 46.1,36 C46.1,37.1 45.9,38.2 45.5,39.2 C45.1,40.2 44.4,41.1 43.4,41.8 C42.4,42.5 41.1,43.1 39.6,43.5 C38,43.9 36.1,44.1 33.8,44.1 C31.5,44.1 29.5,43.8 27.8,43.3 C26.1,42.8 24.8,42.3 23.8,41.9 L24.9,36 C26.2,36.5 27.7,37 29.2,37.5 C30.6,37.8 32.2,38.1 33.8,38.1" id="Path" fill="#12110C" fill-rule="nonzero" mask="url(#mask-2)"></path>
                </g>
                <g id="Clipped">
                    <mask id="mask-4" fill="white">
                        <use xlink:href="#path-3"></use>
                    </mask>
                    <g id="Path"></g>
                    <path d="M68,27.3 C68,26.6 67.9,25.9 67.7,25.2 C67.5,24.5 67.2,23.9 66.8,23.4 C66.4,22.9 65.8,22.4 65.2,22.1 C64.5,21.8 63.7,21.6 62.8,21.6 C61.9,21.6 61.1,21.8 60.4,22.1 C59.7,22.4 59.2,22.8 58.7,23.4 C58.3,23.9 57.9,24.6 57.7,25.2 C57.4,25.9 57.3,26.6 57.2,27.3 L68,27.3 Z M49.8,30.1 C49.8,27.7 50.2,25.6 50.9,23.8 C51.6,22 52.6,20.5 53.8,19.3 C55,18.1 56.4,17.2 57.9,16.6 C59.4,16 61,15.7 62.6,15.7 C66.6,15.7 69.6,16.9 71.7,19.2 C73.8,21.6 74.8,25 74.8,29.6 L74.8,31 C74.8,31.5 74.8,31.9 74.7,32.2 L57.1,32.2 C57.1,34 57.8,35.4 59.3,36.4 C60.8,37.4 62.6,37.9 65,37.9 C66.4,37.9 67.8,37.7 69.1,37.4 C70.4,37.1 71.5,36.8 72.4,36.5 L73.4,42.6 C72.2,43 70.9,43.4 69.5,43.7 C68.1,44 66.6,44.1 64.8,44.1 C62.5,44.1 60.4,43.8 58.6,43.2 C56.8,42.6 55.2,41.7 53.9,40.5 C52.6,39.3 51.6,37.9 50.9,36.1 C50.1,34.4 49.8,32.4 49.8,30.1" id="Shape" fill="#12110C" fill-rule="nonzero" mask="url(#mask-4)"></path>
                </g>
                <g id="Clipped">
                    <mask id="mask-6" fill="white">
                        <use xlink:href="#path-5"></use>
                    </mask>
                    <g id="Path"></g>
                    <path d="M100.5,23.5 C100,23.4 99.5,23.3 98.9,23.2 C98.3,23.1 97.6,23 97,22.9 C96.3,22.8 95.7,22.7 95.1,22.7 C94.5,22.7 94,22.6 93.5,22.6 C92.5,22.6 91.5,22.6 90.6,22.7 C89.6,22.8 88.7,23 87.7,23.2 L87.7,43.3 L80.5,43.3 L80.5,18.1 C82.4,17.4 84.3,16.9 86.3,16.4 C88.3,16 90.6,15.8 93.3,15.8 C93.7,15.8 94.2,15.8 94.9,15.9 C95.6,15.9 96.4,16 97.2,16.1 C98,16.2 98.8,16.3 99.7,16.4 C100.5,16.5 101.3,16.7 101.9,16.9 L100.5,23.5 Z" id="Path" fill="#12110C" fill-rule="nonzero" mask="url(#mask-6)"></path>
                </g>
                <g id="Clipped">
                    <mask id="mask-8" fill="white">
                        <use xlink:href="#path-7"></use>
                    </mask>
                    <g id="Path"></g>
                    <path d="M115.1,43.4 C113.4,40 111.6,36 109.8,31.4 C108,26.8 106.3,21.8 104.7,16.3 L112.1,16.3 C112.4,17.8 112.9,19.3 113.3,21 C113.8,22.7 114.3,24.3 114.8,26 C115.3,27.7 115.9,29.3 116.4,30.9 C117,32.5 117.5,33.9 118,35.2 C118.5,33.9 119.1,32.4 119.7,30.9 C120.3,29.3 120.9,27.7 121.5,26 C122.1,24.3 122.7,22.7 123.2,21 C123.8,19.3 124.2,17.8 124.6,16.3 L131.8,16.3 C130.2,21.8 128.4,26.8 126.4,31.4 C124.4,36 122.6,40 120.9,43.4 L115.1,43.4 Z" id="Path" fill="#12110C" fill-rule="nonzero" mask="url(#mask-8)"></path>
                </g>
                <g id="Clipped">
                    <mask id="mask-10" fill="white">
                        <use xlink:href="#path-9"></use>
                    </mask>
                    <g id="Path"></g>
                    <path d="M151.2,27.3 C151.2,26.6 151.1,25.9 150.9,25.2 C150.7,24.5 150.4,23.9 150,23.4 C149.6,22.9 149,22.4 148.4,22.1 C147.7,21.8 146.9,21.6 146,21.6 C145.1,21.6 144.3,21.8 143.6,22.1 C142.9,22.4 142.4,22.8 141.9,23.4 C141.5,23.9 141.1,24.6 140.9,25.2 C140.6,25.9 140.5,26.6 140.4,27.3 L151.2,27.3 Z M133,30.1 C133,27.7 133.4,25.6 134.1,23.8 C134.8,22 135.8,20.5 137,19.3 C138.2,18.1 139.6,17.2 141.1,16.6 C142.6,16 144.2,15.7 145.8,15.7 C149.8,15.7 152.8,16.9 154.9,19.2 C157,21.6 158,25 158,29.6 L158,31 C158,31.5 158,31.9 157.9,32.2 L140.3,32.2 C140.3,34 141,35.4 142.5,36.4 C144,37.4 145.8,37.9 148.2,37.9 C149.6,37.9 151,37.7 152.3,37.4 C153.6,37.1 154.7,36.8 155.6,36.5 L156.6,42.6 C155.4,43 154.1,43.4 152.7,43.7 C151.3,44 149.8,44.1 148,44.1 C145.7,44.1 143.6,43.8 141.8,43.2 C140,42.6 138.4,41.7 137.1,40.5 C135.8,39.3 134.8,37.9 134.1,36.1 C133.3,34.4 133,32.4 133,30.1" id="Shape" fill="#12110C" fill-rule="nonzero" mask="url(#mask-10)"></path>
                </g>
                <g id="Clipped">
                    <mask id="mask-12" fill="white">
                        <use xlink:href="#path-11"></use>
                    </mask>
                    <g id="Path"></g>
                    <path d="M183.7,23.5 C183.2,23.4 182.7,23.3 182.1,23.2 C181.5,23.1 180.8,23 180.2,22.9 C179.5,22.8 178.9,22.7 178.3,22.7 C177.7,22.7 177.2,22.6 176.7,22.6 C175.7,22.6 174.7,22.6 173.8,22.7 C172.8,22.8 171.9,23 170.9,23.2 L170.9,43.3 L163.7,43.3 L163.7,18.1 C165.6,17.4 167.5,16.9 169.5,16.4 C171.5,16 173.8,15.8 176.5,15.8 C176.9,15.8 177.4,15.8 178.1,15.9 C178.8,15.9 179.6,16 180.4,16.1 C181.2,16.2 182,16.3 182.9,16.4 C183.7,16.5 184.5,16.7 185.1,16.9 L183.7,23.5 Z" id="Path" fill="#12110C" fill-rule="nonzero" mask="url(#mask-12)"></path>
                </g>
                <g id="Clipped">
                    <mask id="mask-14" fill="white">
                        <use xlink:href="#path-13"></use>
                    </mask>
                    <g id="Path"></g>
                    <path d="M209.4,42.3 C209.3,42.4 209,42.5 208.6,42.7 C208.2,42.9 207.7,43.1 207,43.3 C206.3,43.5 205.5,43.7 204.6,43.8 C203.7,44 202.6,44 201.4,44 C198.1,44 195.7,43 194.2,41.1 C192.7,39.2 191.9,36.3 191.9,32.6 L191.9,9.6 L184.4,9.6 L184.4,3.7 L199,3.7 L199,33.1 C199,34.9 199.4,36.2 200.1,36.9 C200.8,37.6 201.8,37.9 202.9,37.9 C204.3,37.9 205.5,37.7 206.5,37.3 C207.5,36.9 208.1,36.7 208.4,36.5 L209.4,42.3 Z" id="Path" fill="#12110C" fill-rule="nonzero" mask="url(#mask-14)"></path>
                </g>
                <g id="Clipped">
                    <mask id="mask-16" fill="white">
                        <use xlink:href="#path-15"></use>
                    </mask>
                    <g id="Path"></g>
                    <path d="M229.9,27.3 C229.9,26.6 229.8,25.9 229.6,25.2 C229.4,24.5 229.1,23.9 228.7,23.4 C228.3,22.9 227.7,22.4 227.1,22.1 C226.4,21.8 225.6,21.6 224.7,21.6 C223.8,21.6 223,21.8 222.3,22.1 C221.6,22.4 221.1,22.8 220.6,23.4 C220.2,23.9 219.8,24.6 219.6,25.2 C219.3,25.9 219.2,26.6 219.1,27.3 L229.9,27.3 Z M211.7,30.1 C211.7,27.7 212.1,25.6 212.8,23.8 C213.5,22 214.5,20.5 215.7,19.3 C216.9,18.1 218.3,17.2 219.8,16.6 C221.3,16 222.9,15.7 224.5,15.7 C228.5,15.7 231.5,16.9 233.6,19.2 C235.7,21.6 236.7,25 236.7,29.6 L236.7,31 C236.7,31.5 236.7,31.9 236.6,32.2 L219,32.2 C219,34 219.7,35.4 221.2,36.4 C222.7,37.4 224.5,37.9 226.9,37.9 C228.3,37.9 229.7,37.7 231,37.4 C232.3,37.1 233.4,36.8 234.3,36.5 L235.3,42.6 C234.1,43 232.8,43.4 231.4,43.7 C230,44 228.5,44.1 226.7,44.1 C224.4,44.1 222.3,43.8 220.5,43.2 C218.7,42.6 217.1,41.7 215.8,40.5 C214.5,39.3 213.5,37.9 212.8,36.1 C212,34.4 211.7,32.4 211.7,30.1" id="Shape" fill="#12110C" fill-rule="nonzero" mask="url(#mask-16)"></path>
                </g>
                <g id="Clipped">
                    <mask id="mask-18" fill="white">
                        <use xlink:href="#path-17"></use>
                    </mask>
                    <g id="Path"></g>
                    <path d="M250.5,38.1 C252.2,38.1 253.6,38 254.5,37.7 C255.4,37.5 255.9,36.9 255.9,36.2 C255.9,35.7 255.8,35.3 255.5,34.9 C255.2,34.6 254.8,34.3 254.3,34 C253.8,33.8 253.2,33.5 252.5,33.3 C251.8,33.1 251.1,32.8 250.4,32.6 C249.4,32.3 248.3,31.9 247.2,31.5 C246.1,31.1 245.1,30.6 244.3,30 C243.4,29.4 242.7,28.6 242.1,27.7 C241.5,26.8 241.2,25.6 241.2,24.2 C241.2,23 241.4,22 241.9,20.9 C242.3,19.9 243,19 244,18.2 C244.9,17.4 246.1,16.8 247.6,16.4 C249.1,16 250.8,15.7 252.9,15.7 C254.7,15.7 256.3,15.8 257.8,16.1 C259.3,16.4 260.6,16.8 261.8,17.3 L260.7,23.3 C260,23.1 259,22.8 257.6,22.3 C256.2,21.8 254.7,21.6 252.9,21.6 C251.1,21.6 249.9,21.8 249.2,22.3 C248.6,22.7 248.2,23.2 248.2,23.7 C248.2,24.1 248.3,24.5 248.6,24.8 C248.9,25.1 249.3,25.4 249.8,25.7 C250.3,26 250.8,26.2 251.5,26.5 C252.1,26.8 252.8,27 253.5,27.2 C254.5,27.5 255.6,27.9 256.7,28.4 C257.8,28.8 258.8,29.4 259.7,30 C260.6,30.6 261.3,31.4 261.9,32.4 C262.5,33.4 262.8,34.6 262.8,36 C262.8,37.1 262.6,38.2 262.2,39.2 C261.8,40.2 261.1,41.1 260.1,41.8 C259.1,42.5 257.8,43.1 256.3,43.5 C254.7,43.9 252.8,44.1 250.5,44.1 C248.2,44.1 246.2,43.8 244.5,43.3 C242.8,42.8 241.5,42.3 240.5,41.9 L241.6,36 C242.9,36.5 244.4,37 245.9,37.5 C247.4,37.8 248.9,38.1 250.5,38.1" id="Path" fill="#12110C" fill-rule="nonzero" mask="url(#mask-18)"></path>
                </g>
                <g id="Clipped">
                    <mask id="mask-20" fill="white">
                        <use xlink:href="#path-19"></use>
                    </mask>
                    <g id="Path"></g>
                    <path d="M277,38.1 C278.7,38.1 280.1,38 281,37.7 C281.9,37.5 282.4,36.9 282.4,36.2 C282.4,35.7 282.3,35.3 282,34.9 C281.7,34.6 281.3,34.3 280.8,34 C280.3,33.8 279.7,33.5 279,33.3 C278.3,33.1 277.6,32.8 276.9,32.6 C275.9,32.3 274.8,31.9 273.7,31.5 C272.6,31.1 271.6,30.6 270.8,30 C269.9,29.4 269.2,28.6 268.6,27.7 C268,26.8 267.7,25.6 267.7,24.2 C267.7,23 267.9,22 268.4,20.9 C268.8,19.9 269.5,19 270.5,18.2 C271.4,17.4 272.6,16.8 274.1,16.4 C275.6,16 277.3,15.7 279.4,15.7 C281.2,15.7 282.8,15.8 284.3,16.1 C285.8,16.4 287.1,16.8 288.3,17.3 L287.2,23.3 C286.5,23.1 285.5,22.8 284.1,22.3 C282.7,21.9 281.2,21.6 279.4,21.6 C277.6,21.6 276.4,21.8 275.7,22.3 C275,22.8 274.7,23.2 274.7,23.7 C274.7,24.1 274.8,24.5 275.1,24.8 C275.4,25.1 275.8,25.4 276.3,25.7 C276.8,26 277.3,26.2 278,26.5 C278.6,26.8 279.3,27 280,27.2 C281,27.5 282.1,27.9 283.2,28.4 C284.3,28.8 285.3,29.4 286.2,30 C287.1,30.6 287.8,31.4 288.4,32.4 C289,33.4 289.3,34.6 289.3,36 C289.3,37.1 289.1,38.2 288.7,39.2 C288.3,40.2 287.6,41.1 286.6,41.8 C285.6,42.5 284.3,43.1 282.8,43.5 C281.2,43.9 279.3,44.1 277,44.1 C274.7,44.1 272.7,43.8 271,43.3 C269.3,42.8 268,42.3 267,41.9 L268.1,36 C269.4,36.5 270.9,37 272.4,37.5 C273.9,37.8 275.4,38.1 277,38.1" id="Path" fill="#12110C" fill-rule="nonzero" mask="url(#mask-20)"></path>
                </g>
                <polygon id="Path" fill="#12110C" fill-rule="nonzero" points="307.8 0.7 291.6 50.5 299 50.5 315 0.7"></polygon>
                <g id="Clipped">
                    <mask id="mask-22" fill="white">
                        <use xlink:href="#path-21"></use>
                    </mask>
                    <g id="Path"></g>
                    <path d="M351.7,16 L345.9,16 L345.9,35.8 L351.7,35.8 C358,35.8 361.6,31.3 361.6,25.9 C361.6,20.3 358.2,16 351.7,16" id="Path" fill="#12110C" fill-rule="nonzero" mask="url(#mask-22)"></path>
                </g>
                <polygon id="Path" fill="#12110C" fill-rule="nonzero" points="379.7 30.4 390.2 30.4 384.9 15.9"></polygon>
                <g id="Clipped">
                    <mask id="mask-24" fill="white">
                        <use xlink:href="#path-23"></use>
                    </mask>
                    <g id="Path"></g>
                    <path d="M441.1,42.3 C435,42.3 430.6,40.3 427.6,37.3 L431.3,32.2 C433.5,34.5 437,36.5 441.4,36.5 C445.1,36.5 446.9,34.7 446.9,32.9 C446.9,30.5 444.1,29.7 440.5,28.9 C435.3,27.7 428.7,26.3 428.7,19.2 C428.7,13.9 433.3,9.6 440.7,9.6 C445.7,9.6 449.9,11.1 453.1,14 L449.3,18.9 C446.7,16.5 443.3,15.4 440.2,15.4 C437.2,15.4 435.5,16.7 435.5,18.6 C435.5,20.7 438.2,21.4 441.8,22.3 C447,23.5 453.7,25.1 453.7,32.1 C453.8,37.9 449.6,42.3 441.1,42.3 M416.1,41.7 L409.3,41.7 L409.3,28.7 L397.1,10 L404.8,10 L412.7,22.7 L420.5,10 L428.2,10 L416.1,28.7 L416.1,41.7 Z M394,41.7 L392,36.2 L377.8,36.2 L375.8,41.7 L368.4,41.7 L380.7,10 L389.2,10 L401.4,41.7 L394,41.7 Z M351.7,41.7 L339.2,41.7 L339.2,10 L351.7,10 C361.6,10 368.5,16.3 368.5,25.9 C368.5,35.5 361.6,41.7 351.7,41.7 M326.3,0 L311.6,50.9 L465,50.9 L479.7,0 L326.3,0 Z" id="Shape" fill="#12110C" fill-rule="nonzero" mask="url(#mask-24)"></path>
                </g>
                <g id="Clipped">
                    <mask id="mask-26" fill="white">
                        <use xlink:href="#path-25"></use>
                    </mask>
                    <g id="Path"></g>
                    <path d="M39,52.6 L27.1,52.6 C26.2,52.6 25.4,51.8 25.4,50.9 C25.4,50 26.2,49.2 27.1,49.2 L39,49.2 C39.9,49.2 40.7,50 40.7,50.9 C40.7,51.9 39.9,52.6 39,52.6 M61.1,52.6 L49.2,52.6 C48.3,52.6 47.5,51.8 47.5,50.9 C47.5,50 48.3,49.2 49.2,49.2 L61.1,49.2 C62,49.2 62.8,50 62.8,50.9 C62.8,51.9 62,52.6 61.1,52.6 M83.1,52.6 L71.3,52.6 C70.4,52.6 69.6,51.8 69.6,50.9 C69.6,50 70.4,49.2 71.3,49.2 L83.2,49.2 C84.1,49.2 84.9,50 84.9,50.9 C84.8,51.9 84.1,52.6 83.1,52.6 M105.2,52.6 L93.3,52.6 C92.4,52.6 91.6,51.8 91.6,50.9 C91.6,50 92.4,49.2 93.3,49.2 L105.2,49.2 C106.1,49.2 106.9,50 106.9,50.9 C106.9,51.9 106.1,52.6 105.2,52.6 M127.3,52.6 L115.4,52.6 C114.5,52.6 113.7,51.8 113.7,50.9 C113.7,50 114.5,49.2 115.4,49.2 L127.3,49.2 C128.2,49.2 129,50 129,50.9 C129,51.9 128.2,52.6 127.3,52.6 M149.3,52.6 L137.4,52.6 C136.5,52.6 135.7,51.8 135.7,50.9 C135.7,50 136.5,49.2 137.4,49.2 L149.3,49.2 C150.2,49.2 151,50 151,50.9 C151,51.9 150.3,52.6 149.3,52.6 M171.4,52.6 L159.5,52.6 C158.6,52.6 157.8,51.8 157.8,50.9 C157.8,50 158.6,49.2 159.5,49.2 L171.4,49.2 C172.3,49.2 173.1,50 173.1,50.9 C173.1,51.9 172.3,52.6 171.4,52.6 M193.5,52.6 L181.6,52.6 C180.7,52.6 179.9,51.8 179.9,50.9 C179.9,50 180.7,49.2 181.6,49.2 L193.5,49.2 C194.4,49.2 195.2,50 195.2,50.9 C195.2,51.9 194.4,52.6 193.5,52.6 M215.5,52.6 L203.6,52.6 C202.7,52.6 201.9,51.8 201.9,50.9 C201.9,50 202.7,49.2 203.6,49.2 L215.5,49.2 C216.4,49.2 217.2,50 217.2,50.9 C217.2,51.9 216.5,52.6 215.5,52.6 M237.6,52.6 L225.7,52.6 C224.8,52.6 224,51.8 224,50.9 C224,50 224.8,49.2 225.7,49.2 L237.6,49.2 C238.5,49.2 239.3,50 239.3,50.9 C239.3,51.9 238.5,52.6 237.6,52.6 M259.7,52.6 L247.8,52.6 C246.9,52.6 246.1,51.8 246.1,50.9 C246.1,50 246.9,49.2 247.8,49.2 L259.7,49.2 C260.6,49.2 261.4,50 261.4,50.9 C261.4,51.9 260.6,52.6 259.7,52.6 M281.7,52.6 L269.8,52.6 C268.9,52.6 268.1,51.8 268.1,50.9 C268.1,50 268.9,49.2 269.8,49.2 L281.7,49.2 C282.6,49.2 283.4,50 283.4,50.9 C283.4,51.9 282.7,52.6 281.7,52.6" id="Shape" fill="#12110C" fill-rule="nonzero" mask="url(#mask-26)"></path>
                </g>
            </g>
            <text id="Rome-2019" font-family="PTSans-BoldItalic, PT Sans" font-size="24" font-style="italic" font-weight="bold" letter-spacing="0.000640000062" fill="#F7B500">
                <tspan x="339" y="78">Rome 2019</tspan>
            </text>
        </g>
    </g>
</svg>